PathFileType	4	(X/Y/Z)	C:/Users/opensim2020/Desktop/walking_exp_matlab/subject02_walking05_straight_02.trc	
DataRate	CameraRate	NumFrames	NumMarkers	Units	OrigDataRate	OrigDataStartFrame	OrigNumFrames	
100.00	100.00	5	42	mm	100.00	1426	243	
Frame#	Time	LFHD			RFHD			LBHD			RBHD			C7			T10			CLAV			STRN			RBAK			LSHO			LUPA			LELB			LFRM			LWRA			LWRB			LFIN			RSHO			RUPA			RELB			RFRM			RWRA			RWRB			RFIN			LASI			RASI			LPSI			RPSI			LTHI			LKNE			LTIB			LANK			LHEE			LTOE			RTHI			RKNE			RTIB			RANK			RHEE			RTOE			*39			*40			*41			
		X1	Y1	Z1	X2	Y2	Z2	X3	Y3	Z3	X4	Y4	Z4	X5	Y5	Z5	X6	Y6	Z6	X7	Y7	Z7	X8	Y8	Z8	X9	Y9	Z9	X10	Y10	Z10	X11	Y11	Z11	X12	Y12	Z12	X13	Y13	Z13	X14	Y14	Z14	X15	Y15	Z15	X16	Y16	Z16	X17	Y17	Z17	X18	Y18	Z18	X19	Y19	Z19	X20	Y20	Z20	X21	Y21	Z21	X22	Y22	Z22	X23	Y23	Z23	X24	Y24	Z24	X25	Y25	Z25	X26	Y26	Z26	X27	Y27	Z27	X28	Y28	Z28	X29	Y29	Z29	X30	Y30	Z30	X31	Y31	Z31	X32	Y32	Z32	X33	Y33	Z33	X34	Y34	Z34	X35	Y35	Z35	X36	Y36	Z36	X37	Y37	Z37	X38	Y38	Z38	X39	Y39	Z39	X40	Y40	Z40	X41	Y41	Z41	X42	Y42	Z42	

61	0.600	1449.57263	627.58618	1772.37549	1308.34595	637.25012	1746.90564	1473.29321	734.01471	1668.21924	1334.40491	754.85260	1639.58728	1395.93140	774.09161	1536.13269	1388.92371	825.48669	1262.56555	1417.79993	634.22699	1470.47827	1407.68396	582.61591	1296.90442	1324.62585	823.66553	1366.22839	1580.85767	718.75610	1509.73779	1658.28711	766.97571	1315.35608	1668.78223	792.08539	1176.65491	1688.73145	803.12103	1046.02527	1675.52307	757.41705	912.82855	1698.24805	808.55695	922.71875	1705.52917	798.59705	856.19525	1217.80530	676.73224	1508.09265	1127.29626	676.53064	1316.45532	1108.47546	644.12048	1173.23804	1093.54346	593.19696	1064.11682	1115.32959	523.02960	950.20593	1080.43274	565.78717	937.19055	1080.89636	516.19177	883.72449	1522.48511	594.35297	1002.23438	1267.61853	601.25757	986.35315	1449.24536	805.40161	1046.39978	1334.13940	812.29962	1046.24731	1600.29810	601.25269	699.10913	1579.97852	576.43323	508.75018	1569.43542	673.28625	345.94635	1541.35901	722.87030	129.37300	1481.91101	749.08405	108.02155	1586.09326	595.68231	52.77219	1219.20166	687.73108	677.86493	1270.57300	698.80042	469.59344	1271.11975	746.68585	286.80020	1317.28650	768.64801	95.60794	1373.60608	804.60907	42.79064	1306.53455	616.33972	39.49974	1368.65405	750.32489	1806.64063	-3360.14600	2845.15845	1033.88220			 
62	0.610	1449.44946	617.98035	1771.86963	1308.34387	627.89667	1746.96997	1473.06445	724.99762	1668.23364	1334.09766	745.99670	1640.07910	1395.57617	765.46924	1536.20642	1389.22998	817.38940	1262.74658	1417.04578	625.67523	1470.34424	1406.20923	574.14661	1296.65942	1324.06799	815.16925	1366.32971	1580.31909	709.97906	1509.52759	1657.01135	760.53528	1315.47681	1666.99097	786.93781	1177.08337	1686.74353	799.95062	1046.64844	1673.21033	756.09454	912.57098	1695.96887	807.28040	923.39410	1703.24524	798.30078	856.71802	1217.22998	668.57428	1508.52112	1126.85693	667.38550	1316.80090	1108.13928	632.79736	1173.81262	1093.82715	580.62915	1065.13489	1116.54236	509.50992	951.96381	1081.06470	551.84064	938.52179	1082.52063	501.77280	885.31165	1521.38940	585.26019	1001.82343	1266.40039	595.04590	985.43683	1450.24646	797.73853	1047.05994	1335.13855	805.12744	1046.64429	1599.26208	590.57770	699.44403	1577.96667	565.80133	507.90045	1568.68457	655.11603	339.79108	1540.64172	693.91644	120.97273	1481.33179	719.64618	98.67664	1583.73926	562.77808	50.34492	1219.41992	684.84448	677.73450	1270.71436	696.97516	469.43134	1271.39148	745.96643	287.03415	1317.47717	768.46655	95.70978	1373.69385	804.46606	42.96039	1306.30542	616.44568	39.50821	1368.58411	740.55811	1806.71570	-3360.06201	2845.03833	1033.78467			 
63	0.620	1449.58508	608.55432	1771.35327	1308.60815	618.76447	1746.96790	1472.96606	715.97119	1668.07300	1333.94080	737.11139	1640.36072	1395.29358	756.88422	1536.16040	1390.23804	810.51447	1262.98242	1416.45898	617.06555	1470.08386	1405.15332	566.02344	1296.37451	1323.96753	807.13141	1366.37451	1579.58887	701.00653	1509.00354	1655.92517	754.04413	1315.65515	1665.35217	781.59296	1177.41968	1684.85779	796.60706	1047.21570	1671.45471	754.77802	912.45715	1693.84607	805.68286	923.89600	1701.04370	797.79498	857.18945	1216.47095	660.11163	1508.53674	1126.12903	656.98755	1317.19958	1107.91418	621.58551	1174.15979	1094.19116	568.23877	1066.15454	1117.75818	496.11688	953.75293	1081.90295	537.93066	939.70325	1083.84900	487.48532	886.76575	1520.52283	576.18518	1001.16638	1265.37073	588.76074	984.63220	1451.05261	788.69214	1047.15247	1336.13293	797.87793	1046.86462	1598.36853	580.28467	699.74695	1576.06067	555.64703	506.78906	1567.94275	636.83838	333.67505	1539.91882	664.65649	113.04155	1480.84497	689.79773	90.04240	1581.27161	529.68622	48.31853	1219.56091	681.72687	677.47443	1271.01099	695.00323	469.36072	1271.64063	745.12006	287.19830	1317.75659	768.41254	95.87080	1374.03247	804.38672	43.06944	1306.11279	616.55701	39.45200	1369.10498	731.13306	1807.15979	-3360.19897	2845.08423	1033.80286			 
64	0.630	1450.03931	599.29944	1770.81006	1308.73767	609.55121	1746.75342	1472.96436	706.91187	1667.74695	1333.92273	728.25299	1640.51477	1395.05566	748.21033	1535.92224	1390.53589	802.24554	1262.82544	1415.81616	608.50037	1469.60474	1404.06238	557.78558	1295.85852	1324.03894	799.01428	1366.38000	1579.30713	692.13855	1508.49390	1655.01306	747.23596	1315.73352	1663.80872	776.04065	1177.66040	1683.01196	792.93134	1047.63916	1670.03101	752.97754	912.44092	1692.16101	803.91577	924.61829	1699.11951	797.09259	857.63464	1216.10522	651.99664	1508.58899	1125.28040	646.78333	1317.21826	1107.76074	610.57574	1174.44458	1094.77942	556.38611	1066.85913	1118.97925	482.73456	955.19116	1083.07092	524.35492	940.90607	1085.68054	473.41516	888.28638	1519.85840	567.14899	1000.35962	1264.53845	582.30927	983.87311	1451.91492	780.35394	1047.02039	1337.13623	790.61230	1046.90320	1597.63562	570.38043	699.95142	1574.27869	545.82758	505.47772	1566.94507	618.39325	327.83298	1539.40527	635.42242	105.96606	1480.57324	660.06158	82.27771	1579.25806	496.99368	47.51117	1219.78223	678.32764	677.25153	1271.40564	692.85797	469.09134	1271.96655	744.20306	287.40134	1318.10938	768.39142	96.12694	1374.49963	804.46771	43.37371	1305.85681	616.39539	39.57641	1369.49719	721.67255	1807.14172	-3360.14087	2845.10181	1033.79126			 
65	0.640	1450.24902	589.88885	1770.03503	1308.78723	600.23834	1746.24719	1473.05212	697.79700	1667.27698	1333.97009	719.37335	1640.42493	1395.02124	739.50739	1535.61487	1391.02209	794.00922	1262.63086	1415.37903	599.79199	1469.03979	1403.10449	549.51184	1295.16016	1323.84448	790.59174	1366.20215	1579.08472	683.28033	1507.88696	1654.05603	739.84479	1315.37195	1662.37964	770.28040	1177.83887	1681.66968	789.07544	1048.12451	1668.81470	750.91492	912.19568	1690.60022	801.78265	925.19556	1697.42676	796.11060	858.00256	1215.81934	643.71259	1508.47388	1125.42883	638.06378	1317.25879	1108.25330	599.24591	1174.43896	1094.99023	543.77277	1067.41968	1120.53491	469.83054	956.64337	1084.09802	510.82281	941.87286	1087.38831	459.35654	889.73370	1519.29785	558.14172	999.45868	1263.78394	575.78107	983.11462	1452.79834	771.93134	1046.61584	1338.18140	783.29291	1046.74341	1596.80286	560.72577	699.61902	1572.67029	536.28210	504.08340	1565.80066	600.33417	322.56927	1539.03821	606.32849	99.79042	1480.61816	630.19562	75.22332	1577.52551	464.70609	47.73830	1220.00952	674.75629	676.97186	1271.86755	690.68250	468.96411	1272.41455	743.15149	287.59158	1318.41638	768.15161	96.23709	1374.81726	804.14600	43.37046	1305.61401	616.40741	39.52787	1369.92419	712.18311	1806.95947	-3360.34448	2845.10254	1033.60669			 
